<svg width="25" height="24" viewBox="0 0 25 24" fill="none" xmlns="http://www.w3.org/2000/svg">
<g id="solar:cup-star-bold">
<path id="Vector" d="M22.5 8.16192V8.23492C22.5 9.09492 22.5 9.52592 22.293 9.87792C22.086 10.2299 21.709 10.4389 20.957 10.8579L20.164 11.2979C20.71 9.44992 20.893 7.46392 20.96 5.76592L20.97 5.54492L20.972 5.49292C21.623 5.71892 21.989 5.88792 22.217 6.20392C22.5 6.59692 22.5 7.11892 22.5 8.16192ZM2.5 8.16192V8.23492C2.5 9.09492 2.5 9.52592 2.707 9.87792C2.914 10.2299 3.291 10.4389 4.043 10.8579L4.837 11.2979C4.29 9.44992 4.107 7.46392 4.04 5.76592L4.03 5.54492L4.029 5.49292C3.377 5.71892 3.011 5.88792 2.783 6.20392C2.5 6.59692 2.5 7.11992 2.5 8.16192Z" fill="#FF4F03"/>
<path id="Vector_2" fill-rule="evenodd" clip-rule="evenodd" d="M12.5 1.99999C14.284 1.99999 15.753 2.15699 16.877 2.34699C18.016 2.53899 18.585 2.63499 19.061 3.22099C19.537 3.80699 19.511 4.43999 19.461 5.70599C19.289 10.055 18.351 15.486 13.25 15.966V19.5H14.68C14.9111 19.5001 15.135 19.5803 15.3136 19.7269C15.4923 19.8735 15.6147 20.0774 15.66 20.304L15.85 21.25H18.5C18.6989 21.25 18.8897 21.329 19.0303 21.4697C19.171 21.6103 19.25 21.8011 19.25 22C19.25 22.1989 19.171 22.3897 19.0303 22.5303C18.8897 22.671 18.6989 22.75 18.5 22.75H6.49997C6.30106 22.75 6.11029 22.671 5.96964 22.5303C5.82899 22.3897 5.74997 22.1989 5.74997 22C5.74997 21.8011 5.82899 21.6103 5.96964 21.4697C6.11029 21.329 6.30106 21.25 6.49997 21.25H9.14997L9.33997 20.304C9.38527 20.0774 9.50765 19.8735 9.68631 19.7269C9.86497 19.5803 10.0889 19.5001 10.32 19.5H11.75V15.966C6.64997 15.486 5.71197 10.054 5.53997 5.70599C5.48897 4.43999 5.46397 3.80599 5.93997 3.22099C6.41497 2.63499 6.98397 2.53899 8.12297 2.34699C9.56979 2.10987 11.0339 1.9938 12.5 1.99999ZM13.452 6.19899L13.354 6.02299C12.974 5.33999 12.784 4.99999 12.5 4.99999C12.216 4.99999 12.026 5.33999 11.646 6.02299L11.548 6.19899C11.44 6.39299 11.386 6.48899 11.302 6.55299C11.217 6.61699 11.112 6.64099 10.902 6.68799L10.712 6.73199C9.97397 6.89899 9.60497 6.98199 9.51697 7.26399C9.42897 7.54699 9.68097 7.84099 10.184 8.42899L10.314 8.58099C10.457 8.74799 10.529 8.83099 10.561 8.93499C10.593 9.03899 10.582 9.14999 10.561 9.37299L10.541 9.57599C10.465 10.361 10.427 10.754 10.656 10.928C10.886 11.102 11.232 10.943 11.923 10.625L12.101 10.543C12.298 10.453 12.396 10.408 12.5 10.408C12.604 10.408 12.702 10.453 12.899 10.543L13.077 10.625C13.768 10.944 14.114 11.102 14.344 10.928C14.574 10.754 14.535 10.361 14.459 9.57599L14.439 9.37299C14.418 9.14999 14.407 9.03899 14.439 8.93499C14.471 8.83199 14.543 8.74799 14.686 8.58099L14.816 8.42899C15.319 7.84099 15.571 7.54699 15.483 7.26399C15.395 6.98199 15.026 6.89899 14.288 6.73199L14.098 6.68799C13.888 6.64099 13.783 6.61799 13.698 6.55299C13.614 6.48899 13.56 6.39299 13.452 6.19899Z" fill="#FF4F03"/>
</g>
</svg>
