<svg width="16" height="17" viewBox="0 0 16 17" fill="none" xmlns="http://www.w3.org/2000/svg">
<g id="fluent:star-16-filled">
<path id="Vector" d="M7.1942 2.60117C7.26854 2.45061 7.38351 2.32385 7.52612 2.23522C7.66873 2.14658 7.83329 2.09961 8.0012 2.09961C8.16911 2.09961 8.33367 2.14658 8.47628 2.23522C8.6189 2.32385 8.73387 2.45061 8.8082 2.60117L10.3292 5.68317L13.7302 6.17817C13.8965 6.20215 14.0527 6.27219 14.1812 6.38035C14.3098 6.48851 14.4054 6.63049 14.4575 6.79021C14.5095 6.94994 14.5158 7.12103 14.4756 7.28414C14.4355 7.44725 14.3504 7.59587 14.2302 7.71317L11.7682 10.1122L12.3492 13.4992C12.3777 13.6647 12.3592 13.8349 12.296 13.9906C12.2327 14.1462 12.1272 14.281 11.9913 14.3797C11.8554 14.4785 11.6946 14.5372 11.527 14.5493C11.3595 14.5614 11.1919 14.5264 11.0432 14.4482L8.0012 12.8482L4.9592 14.4482C4.81053 14.5264 4.64295 14.5614 4.4754 14.5493C4.30785 14.5372 4.14703 14.4785 4.01113 14.3797C3.87524 14.281 3.76969 14.1462 3.70644 13.9906C3.64318 13.8349 3.62474 13.6647 3.6532 13.4992L4.2332 10.1122L1.7732 7.71217C1.65327 7.5949 1.5685 7.44644 1.52846 7.28354C1.48842 7.12065 1.4947 6.94981 1.54658 6.7903C1.59847 6.63078 1.69391 6.48894 1.82212 6.38078C1.95034 6.27262 2.10623 6.20245 2.2722 6.17817L5.6722 5.68317L7.1942 2.60117Z" fill="#FF9900"/>
</g>
</svg>
