<svg width="24" height="25" viewBox="0 0 24 25" fill="none" xmlns="http://www.w3.org/2000/svg">
<g id="ic:round-menu">
<path id="Vector" d="M4 18.3452H20C20.55 18.3452 21 17.8952 21 17.3452C21 16.7952 20.55 16.3452 20 16.3452H4C3.45 16.3452 3 16.7952 3 17.3452C3 17.8952 3.45 18.3452 4 18.3452ZM4 13.3452H20C20.55 13.3452 21 12.8952 21 12.3452C21 11.7952 20.55 11.3452 20 11.3452H4C3.45 11.3452 3 11.7952 3 12.3452C3 12.8952 3.45 13.3452 4 13.3452ZM3 7.3452C3 7.8952 3.45 8.3452 4 8.3452H20C20.55 8.3452 21 7.8952 21 7.3452C21 6.7952 20.55 6.3452 20 6.3452H4C3.45 6.3452 3 6.7952 3 7.3452Z" fill="white"/>
</g>
</svg>
