<svg width="49" height="46" viewBox="0 0 49 46" fill="none" xmlns="http://www.w3.org/2000/svg">
<g clip-path="url(#clip0_46_243)">
<path d="M22.7474 19.438C20.758 22.7823 18.8521 26.0208 16.9064 29.2349C16.4067 30.0601 16.1594 30.7323 16.5586 31.7811C17.6607 34.6788 16.1059 37.4986 13.1839 38.264C10.4282 38.986 7.74343 37.175 7.19668 34.2246C6.71218 31.6133 8.73868 29.0534 11.6179 28.6452C11.8591 28.6107 12.1054 28.6068 12.5108 28.5764L16.8904 21.2324C14.1359 18.4934 12.4964 15.2918 12.8592 11.3243C13.1157 8.51989 14.2186 6.09627 16.2342 4.10989C20.0948 0.305892 25.9846 -0.310046 30.5303 2.6097C34.8961 5.41433 36.8956 10.8773 35.1912 15.553C33.9061 15.2046 32.6119 14.8533 31.1894 14.4674C31.7245 11.8677 31.3287 9.53333 29.5754 7.53345C28.417 6.21308 26.9305 5.52102 25.2404 5.26602C21.8519 4.75414 18.5251 6.93102 17.5379 10.2569C16.4174 14.0313 18.1133 17.1145 22.7474 19.438Z" fill="#C73A63"/>
<path d="M28.4285 15.4832C29.8301 17.9558 31.2532 20.4657 32.6636 22.9525C39.7923 20.7469 45.1672 24.6932 47.0955 28.9182C49.4246 34.0217 47.8323 40.0664 43.2583 43.215C38.5633 46.4472 32.6257 45.895 28.466 41.743C29.5261 40.8555 30.5915 39.9642 31.7298 39.0118C35.8383 41.6728 39.4318 41.5476 42.0995 38.3965C44.3745 35.7083 44.3251 31.7001 41.9842 29.0683C39.2827 26.0314 35.6641 25.9388 31.2901 28.854C29.4757 25.635 27.6298 22.4417 25.8727 19.1995C25.2802 18.1067 24.6262 17.4726 23.2908 17.2414C21.0609 16.8548 19.6213 14.9399 19.5348 12.7945C19.4499 10.6727 20.7 8.75479 22.6537 8.0076C24.5891 7.26716 26.8603 7.86473 28.1621 9.51023C29.226 10.8546 29.564 12.3677 29.0041 14.0258C28.8485 14.4882 28.647 14.9354 28.4285 15.4832Z" fill="#4B4B4B"/>
<path d="M31.7784 35.6956H23.1965C22.3739 39.0789 20.5972 41.8104 17.5359 43.5474C15.1559 44.8974 12.5909 45.3551 9.86093 44.9143C4.83443 44.1037 0.724427 39.5788 0.362552 34.4836C-0.0469481 28.7116 3.92036 23.5811 9.20843 22.4287C9.57349 23.7545 9.94249 25.0931 10.3076 26.4157C5.4558 28.8911 3.77655 32.01 5.13443 35.91C6.32974 39.342 9.72518 41.2231 13.412 40.4956C17.177 39.7528 19.0752 36.6238 18.8435 31.6021C22.4127 31.6021 25.985 31.5652 29.5546 31.6203C30.9485 31.6423 32.0246 31.4977 33.0746 30.2688C34.8033 28.2468 37.9854 28.4293 39.8472 30.339C41.75 32.2906 41.6589 35.4309 39.6453 37.3003C37.7026 39.104 34.6334 39.0076 32.8158 37.064C32.4423 36.6635 32.1479 36.1878 31.7784 35.6956Z" fill="#4A4A4A"/>
</g>
<defs>
<clipPath id="clip0_46_243">
<rect width="48" height="44.8125" fill="white" transform="translate(0.333496 0.59375)"/>
</clipPath>
</defs>
</svg>
