<svg width="221" height="88" viewBox="0 0 221 88" fill="none" xmlns="http://www.w3.org/2000/svg">
<path d="M87.0634 24.4533C87.0634 11.8116 97.3116 1.56339 109.953 1.56339H111.047C123.688 1.56339 133.937 11.8116 133.937 24.4533V43.8867C133.937 46.3995 131.9 48.4366 129.387 48.4366H109.953C97.3116 48.4366 87.0634 38.1884 87.0634 25.5467V24.4533Z" stroke="white" stroke-width="3.12679"/>
<path d="M93.373 29.7087C93.373 28.7859 94.1212 28.0378 95.044 28.0378H96.5061V35.6964H95.044C94.1212 35.6964 93.373 34.9482 93.373 34.0254V29.7087Z" fill="white"/>
<path d="M124.495 28.0378H125.957C126.88 28.0378 127.628 28.7859 127.628 29.7087V34.0254C127.628 34.9482 126.88 35.6964 125.957 35.6964H124.495V28.0378Z" fill="white"/>
<path d="M96.5061 34.1646H124.495V37.4369C124.495 38.975 123.248 40.2219 121.71 40.2219H99.2911C97.753 40.2219 96.5061 38.975 96.5061 37.4369V34.1646Z" fill="white"/>
<path d="M96.5061 26.506C96.5061 21.5073 100.558 17.455 105.557 17.455H115.444C120.442 17.455 124.495 21.5073 124.495 26.506H96.5061Z" fill="white"/>
<path d="M108.969 11.537H112.032V17.455H108.969V11.537Z" fill="white"/>
<path d="M113.494 12.825C113.494 14.4977 112.138 15.8536 110.466 15.8536C108.793 15.8536 107.437 14.4977 107.437 12.825C107.437 11.1523 108.793 9.79639 110.466 9.79639C112.138 9.79639 113.494 11.1523 113.494 12.825Z" fill="white"/>
<path d="M96.5061 26.506H103.608C101.493 26.506 99.7784 28.2205 99.7784 30.3353C99.7784 32.4502 101.493 34.1646 103.608 34.1646H96.5061V26.506Z" fill="white"/>
<path d="M117.393 34.1646H103.608C105.723 34.1646 107.437 32.4502 107.437 30.3353C107.437 28.2205 105.723 26.506 103.608 26.506H117.393C115.278 26.506 113.564 28.2205 113.564 30.3353C113.564 32.4502 115.278 34.1646 117.393 34.1646Z" fill="white"/>
<path d="M117.393 34.1646C119.508 34.1646 121.222 32.4502 121.222 30.3353C121.222 28.2205 119.508 26.506 117.393 26.506H124.495V34.1646H117.393Z" fill="white"/>
<path d="M4.42969 57.1274C4.42969 56.772 4.53906 56.4644 4.75781 56.2046C4.99023 55.9448 5.26367 55.8149 5.57812 55.8149H8.44922C8.76367 55.8149 9.03027 55.9448 9.24902 56.2046C9.46777 56.4644 9.57715 56.772 9.57715 57.1274V85.9409C9.57715 86.2964 9.46094 86.604 9.22852 86.8638C9.00977 87.1235 8.74316 87.2534 8.42871 87.2534H5.55762C5.24316 87.2534 4.97656 87.1235 4.75781 86.8638C4.53906 86.604 4.42969 86.2964 4.42969 85.9409V57.1274ZM17.8008 65.5972C17.8008 64.6128 18.2725 64.1206 19.2158 64.1206H20.3438C21.1094 64.1206 21.6289 64.4077 21.9023 64.9819C22.2852 65.8022 22.6133 66.8823 22.8867 68.2222C24.1172 65.98 25.9492 64.5444 28.3828 63.9155C29.1484 63.7104 30.0986 63.6079 31.2334 63.6079C32.3818 63.6079 33.4414 63.854 34.4121 64.3462C35.3828 64.8247 36.1484 65.4878 36.709 66.3354C37.748 67.8804 38.2676 70.1567 38.2676 73.1646V85.8999C38.2676 86.2827 38.1445 86.604 37.8984 86.8638C37.6523 87.1235 37.29 87.2534 36.8115 87.2534H34.8018C34.2822 87.2534 33.8994 87.1235 33.6533 86.8638C33.4072 86.604 33.2842 86.2827 33.2842 85.8999V73.144C33.2842 69.644 31.999 67.894 29.4287 67.894C27.9248 67.894 26.5508 68.5229 25.3066 69.7808C23.9805 71.1343 23.3174 72.7065 23.3174 74.4976V85.8999C23.3174 86.2827 23.2012 86.604 22.9688 86.8638C22.7363 87.1235 22.3809 87.2534 21.9023 87.2534H19.79C19.3115 87.2534 18.9492 87.1235 18.7031 86.8638C18.457 86.604 18.334 86.2827 18.334 85.8999V73.3081C18.334 70.5601 18.2451 68.646 18.0674 67.5659C17.8896 66.4722 17.8008 65.8159 17.8008 65.5972ZM45.7734 65.5972C45.7734 64.6128 46.2451 64.1206 47.1885 64.1206H48.3164C49.082 64.1206 49.6016 64.4077 49.875 64.9819C50.2578 65.8022 50.5859 66.8823 50.8594 68.2222C52.0898 65.98 53.9219 64.5444 56.3555 63.9155C57.1211 63.7104 58.0713 63.6079 59.2061 63.6079C60.3545 63.6079 61.4141 63.854 62.3848 64.3462C63.3555 64.8247 64.1211 65.4878 64.6816 66.3354C65.7207 67.8804 66.2402 70.1567 66.2402 73.1646V85.8999C66.2402 86.2827 66.1172 86.604 65.8711 86.8638C65.625 87.1235 65.2627 87.2534 64.7842 87.2534H62.7744C62.2549 87.2534 61.8721 87.1235 61.626 86.8638C61.3799 86.604 61.2568 86.2827 61.2568 85.8999V73.144C61.2568 69.644 59.9717 67.894 57.4014 67.894C55.8975 67.894 54.5234 68.5229 53.2793 69.7808C51.9531 71.1343 51.29 72.7065 51.29 74.4976V85.8999C51.29 86.2827 51.1738 86.604 50.9414 86.8638C50.709 87.1235 50.3535 87.2534 49.875 87.2534H47.7627C47.2842 87.2534 46.9219 87.1235 46.6758 86.8638C46.4297 86.604 46.3066 86.2827 46.3066 85.8999V73.3081C46.3066 70.5601 46.2178 68.646 46.04 67.5659C45.8623 66.4722 45.7734 65.8159 45.7734 65.5972ZM72.4336 75.605C72.4336 73.8276 72.7275 72.2007 73.3154 70.7241C73.917 69.2339 74.7373 67.9624 75.7764 66.9097C77.9502 64.7085 80.6914 63.6079 84 63.6079C87.7051 63.6079 90.5762 64.7085 92.6133 66.9097C94.582 69.0288 95.5664 71.9409 95.5664 75.646C95.5664 79.228 94.4521 82.1538 92.2236 84.4233C90.0498 86.6519 87.3086 87.7661 84 87.7661C80.5137 87.7661 77.7109 86.6245 75.5918 84.3413C73.4863 82.1128 72.4336 79.2007 72.4336 75.605ZM79.0166 70.396C78.5107 71.1479 78.1416 72.0093 77.9092 72.98C77.6768 73.937 77.5605 74.9146 77.5605 75.9126C77.5605 76.897 77.6904 77.8472 77.9502 78.7632C78.2236 79.6655 78.627 80.4722 79.1602 81.1831C80.3359 82.7417 81.9766 83.521 84.082 83.521C86.2285 83.521 87.8555 82.7554 88.9629 81.2241C89.9473 79.8843 90.4395 78.0591 90.4395 75.7485C90.4395 72.2896 89.3047 69.9038 87.0352 68.5913C86.2012 68.1128 85.1895 67.8735 84 67.8735C82.8242 67.8735 81.8262 68.106 81.0059 68.5708C80.1992 69.022 79.5361 69.6304 79.0166 70.396ZM120.668 65.5151C120.504 67.8394 119.889 70.8472 118.822 74.5386C117.318 79.8022 115.637 83.5552 113.777 85.7974C113.135 86.5493 112.485 87.021 111.829 87.2124C111.173 87.4038 110.51 87.4995 109.84 87.4995C109.17 87.4995 108.589 87.4243 108.097 87.2739C107.604 87.1235 107.194 86.8911 106.866 86.5767C106.319 86.0435 105.827 85.0454 105.39 83.5825C104.487 80.5747 103.551 77.6353 102.58 74.7642L99.6064 66.1919C99.4971 65.8638 99.4424 65.5835 99.4424 65.3511C99.4424 64.5308 99.9756 64.1206 101.042 64.1206H102.908C103.387 64.1206 103.77 64.23 104.057 64.4487C104.357 64.6538 104.61 65.0571 104.815 65.6587C106.593 70.936 108.104 76.2749 109.348 81.6753C109.498 82.3726 109.799 82.7212 110.25 82.7212C110.605 82.7212 110.934 82.4341 111.234 81.8599C112.711 79.1118 113.9 75.0034 114.803 69.5347C115.049 68.0991 115.227 66.9985 115.336 66.2329C115.459 65.4673 115.575 64.9956 115.685 64.8179C115.808 64.6401 115.944 64.5034 116.095 64.4077C116.368 64.2163 116.669 64.1206 116.997 64.1206H119.355C120.23 64.1206 120.668 64.5854 120.668 65.5151ZM144.888 86.1665C144.888 86.8911 144.532 87.2534 143.821 87.2534H141.832C141.299 87.2534 140.978 87.1509 140.868 86.9458C140.759 86.7271 140.697 86.5356 140.684 86.3716C140.67 86.1938 140.643 85.9819 140.602 85.7358C140.52 85.0659 140.403 84.3413 140.253 83.562C139.187 85.5171 137.512 86.8091 135.229 87.438C134.422 87.6567 133.533 87.7661 132.562 87.7661C131.592 87.7661 130.621 87.6021 129.65 87.2739C128.68 86.9595 127.818 86.4878 127.066 85.8589C125.371 84.437 124.523 82.5708 124.523 80.2603C124.523 77.731 125.453 75.7964 127.312 74.4565C128.844 73.3765 130.812 72.8364 133.219 72.8364C135.625 72.8364 137.662 73.5405 139.33 74.9487C139.371 74.4839 139.392 73.9028 139.392 73.2056C139.392 72.5083 139.255 71.811 138.981 71.1138C138.708 70.4165 138.318 69.8354 137.812 69.3706C136.773 68.4546 135.324 67.9966 133.465 67.9966C131.797 67.9966 130.102 68.4546 128.379 69.3706C128.051 69.5483 127.764 69.6372 127.518 69.6372C127.148 69.6372 126.793 69.2749 126.451 68.5503C126.082 67.812 125.897 67.2788 125.897 66.9507C125.897 66.3491 126.349 65.7681 127.251 65.2075C128.974 64.1411 131.277 63.6079 134.162 63.6079C136.787 63.6079 138.961 64.3257 140.684 65.7612C142.721 67.4839 143.739 69.9175 143.739 73.062C143.739 74.4565 143.514 76.2134 143.062 78.3325C144.225 81.6411 144.833 84.2524 144.888 86.1665ZM131.147 77.4712C130.587 77.8813 130.184 78.2915 129.938 78.7017C129.705 79.1118 129.589 79.5972 129.589 80.1577C129.589 80.7046 129.685 81.1968 129.876 81.6343C130.081 82.0581 130.361 82.4136 130.717 82.7007C131.469 83.2886 132.31 83.5825 133.239 83.5825C134.183 83.5825 134.955 83.4731 135.557 83.2544C136.158 83.0356 136.678 82.7554 137.115 82.4136C138.059 81.6753 138.53 80.896 138.53 80.0757C138.448 79.0503 137.881 78.2437 136.828 77.6558C135.885 77.1089 134.771 76.8354 133.485 76.8354C132.487 76.8354 131.708 77.0474 131.147 77.4712ZM152.435 87.2534C151.614 87.2534 151.204 86.7271 151.204 85.6743V52.2261C151.204 51.8569 151.307 51.5425 151.512 51.2827C151.717 51.0229 151.977 50.8931 152.291 50.8931H155.08C155.395 50.8931 155.654 51.0229 155.859 51.2827C156.078 51.5425 156.188 51.8569 156.188 52.2261V67.2173C157.938 64.811 160.439 63.6079 163.693 63.6079C166.674 63.6079 168.957 64.7085 170.543 66.9097C171.979 68.9058 172.696 71.5649 172.696 74.8872C172.696 78.77 171.76 81.894 169.887 84.2593C168.041 86.5835 165.703 87.7456 162.873 87.7456C161.342 87.7456 159.92 87.4038 158.607 86.7202C157.309 86.0229 156.256 84.9634 155.449 83.5415C155.422 83.9653 155.381 84.3823 155.326 84.7925C155.285 85.2026 155.258 85.5991 155.244 85.9819C155.189 86.8296 154.636 87.2534 153.583 87.2534H152.435ZM157.623 70.1704C157.062 70.8677 156.632 71.688 156.331 72.6313C156.03 73.561 155.88 74.5386 155.88 75.564C155.88 76.5757 156.03 77.5601 156.331 78.5171C156.632 79.4604 157.049 80.3081 157.582 81.0601C158.758 82.7007 160.214 83.521 161.95 83.521C163.892 83.521 165.348 82.6733 166.318 80.978C167.111 79.5698 167.508 77.7515 167.508 75.5229C167.508 71.8452 166.564 69.48 164.678 68.4272C164.021 68.0581 163.222 67.8735 162.278 67.8735C161.335 67.8735 160.467 68.0786 159.674 68.4888C158.881 68.8989 158.197 69.4595 157.623 70.1704ZM177.516 75.605C177.516 73.8276 177.81 72.2007 178.397 70.7241C178.999 69.2339 179.819 67.9624 180.858 66.9097C183.032 64.7085 185.773 63.6079 189.082 63.6079C192.787 63.6079 195.658 64.7085 197.695 66.9097C199.664 69.0288 200.648 71.9409 200.648 75.646C200.648 79.228 199.534 82.1538 197.306 84.4233C195.132 86.6519 192.391 87.7661 189.082 87.7661C185.596 87.7661 182.793 86.6245 180.674 84.3413C178.568 82.1128 177.516 79.2007 177.516 75.605ZM184.099 70.396C183.593 71.1479 183.224 72.0093 182.991 72.98C182.759 73.937 182.643 74.9146 182.643 75.9126C182.643 76.897 182.772 77.8472 183.032 78.7632C183.306 79.6655 183.709 80.4722 184.242 81.1831C185.418 82.7417 187.059 83.521 189.164 83.521C191.311 83.521 192.938 82.7554 194.045 81.2241C195.029 79.8843 195.521 78.0591 195.521 75.7485C195.521 72.2896 194.387 69.9038 192.117 68.5913C191.283 68.1128 190.271 67.8735 189.082 67.8735C187.906 67.8735 186.908 68.106 186.088 68.5708C185.281 69.022 184.618 69.6304 184.099 70.396ZM219.372 67.2378C219.372 68.0034 218.941 68.3862 218.08 68.3862H212.297V81.2651C212.297 82.6597 212.987 83.3569 214.368 83.3569C215.243 83.3569 216.385 82.9194 217.793 82.0444C218.066 81.8667 218.36 81.7778 218.675 81.7778C219.003 81.7778 219.263 82.0034 219.454 82.4546L219.926 83.521C220.104 83.9312 220.192 84.2798 220.192 84.5669C220.192 84.854 219.974 85.189 219.536 85.5718C219.112 85.9409 218.565 86.2759 217.896 86.5767C216.378 87.2603 215.004 87.6021 213.773 87.6021C212.543 87.6021 211.565 87.479 210.841 87.2329C210.13 86.9731 209.521 86.5903 209.016 86.0845C207.922 85.0181 207.375 83.48 207.375 81.4702V68.3862H205.652C204.791 68.3862 204.36 67.9966 204.36 67.2173V66.0483C204.36 65.7339 204.442 65.4878 204.606 65.3101C204.771 65.1323 205.092 64.9956 205.57 64.8999L207.621 64.3052L208.4 59.4858C208.551 58.5835 208.92 58.1323 209.508 58.1323H211.21C211.524 58.1323 211.784 58.2622 211.989 58.522C212.194 58.7681 212.297 59.0894 212.297 59.4858V64.1206H218.08C218.941 64.1206 219.372 64.4966 219.372 65.2485V67.2378Z" fill="white"/>
</svg>
