<svg width="157" height="29" viewBox="0 0 157 29" fill="none" xmlns="http://www.w3.org/2000/svg">
<path d="M0.881868 13.9483C0.881868 6.81739 6.66258 1.03667 13.7935 1.03667H14.8969C22.0278 1.03667 27.8085 6.81738 27.8085 13.9483V25.3968C27.8085 26.8143 26.6595 27.9633 25.242 27.9633H13.7935C6.66259 27.9633 0.881868 22.1826 0.881868 15.0517V13.9483Z" stroke="white" stroke-width="1.76374"/>
<path d="M4.51736 17.2015C4.51736 16.672 4.94664 16.2427 5.47618 16.2427H6.31514V20.6373H5.47618C4.94664 20.6373 4.51736 20.208 4.51736 19.6785V17.2015Z" fill="white"/>
<path d="M22.3753 16.2427H23.2142C23.7438 16.2427 24.173 16.672 24.173 17.2015V19.6785C24.173 20.208 23.7438 20.6373 23.2142 20.6373H22.3753V16.2427Z" fill="white"/>
<path d="M6.31514 19.7584H22.3753V21.6361C22.3753 22.5186 21.6598 23.2341 20.7772 23.2341H7.91316C7.0306 23.2341 6.31514 22.5186 6.31514 21.6361V19.7584Z" fill="white"/>
<path d="M6.31514 15.3638C6.31514 12.4955 8.64038 10.1702 11.5087 10.1702H17.1817C20.05 10.1702 22.3753 12.4955 22.3753 15.3638H6.31514Z" fill="white"/>
<path d="M13.4663 6.77444H15.2241V10.1702H13.4663V6.77444Z" fill="white"/>
<path d="M16.0631 7.51353C16.0631 8.47332 15.285 9.25138 14.3252 9.25138C13.3654 9.25138 12.5874 8.47332 12.5874 7.51353C12.5874 6.55374 13.3654 5.77568 14.3252 5.77568C15.285 5.77568 16.0631 6.55374 16.0631 7.51353Z" fill="white"/>
<path d="M6.31514 15.3638H10.3901C9.17657 15.3638 8.19282 16.3476 8.19282 17.5611C8.19282 18.7746 9.17657 19.7584 10.3901 19.7584H6.31514V15.3638Z" fill="white"/>
<path d="M18.3003 19.7584H10.3901C11.6036 19.7584 12.5874 18.7746 12.5874 17.5611C12.5874 16.3476 11.6036 15.3638 10.3901 15.3638H18.3003C17.0868 15.3638 16.103 16.3476 16.103 17.5611C16.103 18.7746 17.0868 19.7584 18.3003 19.7584Z" fill="white"/>
<path d="M18.3003 19.7584C19.5138 19.7584 20.4976 18.7746 20.4976 17.5611C20.4976 16.3476 19.5138 15.3638 18.3003 15.3638H22.3753V19.7584H18.3003Z" fill="white"/>
<path d="M34.7033 6.59692C34.7033 6.39748 34.7646 6.22488 34.8874 6.07913C35.0178 5.93338 35.1712 5.86051 35.3476 5.86051H36.9586C37.135 5.86051 37.2846 5.93338 37.4073 6.07913C37.53 6.22488 37.5914 6.39748 37.5914 6.59692V22.7636C37.5914 22.963 37.5262 23.1356 37.3958 23.2814C37.2731 23.4271 37.1235 23.5 36.947 23.5H35.3361C35.1597 23.5 35.0101 23.4271 34.8874 23.2814C34.7646 23.1356 34.7033 22.963 34.7033 22.7636V6.59692ZM42.2055 11.3491C42.2055 10.7968 42.4702 10.5206 42.9995 10.5206H43.6323C44.0619 10.5206 44.3534 10.6817 44.5068 11.0039C44.7216 11.4642 44.9057 12.0702 45.0591 12.822C45.7495 11.5639 46.7774 10.7584 48.1429 10.4056C48.5725 10.2905 49.1056 10.233 49.7423 10.233C50.3867 10.233 50.9812 10.3711 51.5258 10.6472C52.0704 10.9157 52.5 11.2877 52.8145 11.7634C53.3975 12.6302 53.689 13.9074 53.689 15.595V22.7406C53.689 22.9554 53.62 23.1356 53.4819 23.2814C53.3438 23.4271 53.1406 23.5 52.8721 23.5H51.7444C51.4529 23.5 51.2381 23.4271 51.1001 23.2814C50.962 23.1356 50.8929 22.9554 50.8929 22.7406V15.5835C50.8929 13.6197 50.1719 12.6378 48.7297 12.6378C47.8859 12.6378 47.115 12.9907 46.4169 13.6964C45.6728 14.4559 45.3008 15.338 45.3008 16.3429V22.7406C45.3008 22.9554 45.2356 23.1356 45.1052 23.2814C44.9748 23.4271 44.7753 23.5 44.5068 23.5H43.3217C43.0532 23.5 42.8499 23.4271 42.7118 23.2814C42.5737 23.1356 42.5047 22.9554 42.5047 22.7406V15.6756C42.5047 14.1337 42.4548 13.0598 42.3551 12.4537C42.2554 11.8401 42.2055 11.4719 42.2055 11.3491ZM57.9004 11.3491C57.9004 10.7968 58.1651 10.5206 58.6944 10.5206H59.3272C59.7568 10.5206 60.0483 10.6817 60.2017 11.0039C60.4165 11.4642 60.6006 12.0702 60.754 12.822C61.4444 11.5639 62.4723 10.7584 63.8378 10.4056C64.2674 10.2905 64.8005 10.233 65.4372 10.233C66.0816 10.233 66.6761 10.3711 67.2207 10.6472C67.7653 10.9157 68.1949 11.2877 68.5094 11.7634C69.0924 12.6302 69.3839 13.9074 69.3839 15.595V22.7406C69.3839 22.9554 69.3149 23.1356 69.1768 23.2814C69.0387 23.4271 68.8354 23.5 68.567 23.5H67.4393C67.1478 23.5 66.933 23.4271 66.795 23.2814C66.6569 23.1356 66.5878 22.9554 66.5878 22.7406V15.5835C66.5878 13.6197 65.8668 12.6378 64.4246 12.6378C63.5808 12.6378 62.8099 12.9907 62.1118 13.6964C61.3677 14.4559 60.9957 15.338 60.9957 16.3429V22.7406C60.9957 22.9554 60.9305 23.1356 60.8001 23.2814C60.6697 23.4271 60.4702 23.5 60.2017 23.5H59.0165C58.7481 23.5 58.5448 23.4271 58.4067 23.2814C58.2686 23.1356 58.1996 22.9554 58.1996 22.7406V15.6756C58.1996 14.1337 58.1497 13.0598 58.05 12.4537C57.9503 11.8401 57.9004 11.4719 57.9004 11.3491ZM72.8589 16.9643C72.8589 15.9671 73.0238 15.0542 73.3537 14.2257C73.6912 13.3896 74.1515 12.6762 74.7345 12.0855C75.9541 10.8505 77.4922 10.233 79.3486 10.233C81.4274 10.233 83.0383 10.8505 84.1813 12.0855C85.2859 13.2745 85.8382 14.9085 85.8382 16.9873C85.8382 18.9971 85.2131 20.6387 83.9627 21.9121C82.743 23.1625 81.205 23.7877 79.3486 23.7877C77.3925 23.7877 75.8199 23.1471 74.6309 21.8661C73.4496 20.6157 72.8589 18.9818 72.8589 16.9643ZM76.5525 14.0416C76.2687 14.4635 76.0615 14.9468 75.9311 15.4915C75.8007 16.0284 75.7355 16.5769 75.7355 17.1369C75.7355 17.6892 75.8084 18.2223 75.9541 18.7363C76.1076 19.2426 76.3339 19.6952 76.633 20.0941C77.2927 20.9686 78.2133 21.4058 79.3946 21.4058C80.5989 21.4058 81.5118 20.9762 82.1331 20.1171C82.6855 19.3653 82.9616 18.3412 82.9616 17.0448C82.9616 15.1041 82.3249 13.7655 81.0515 13.0291C80.5836 12.7606 80.0159 12.6263 79.3486 12.6263C78.6889 12.6263 78.1289 12.7567 77.6686 13.0176C77.216 13.2707 76.844 13.6121 76.5525 14.0416ZM99.9222 11.3031C99.8302 12.6072 99.485 14.2948 98.8866 16.366C98.0428 19.3193 97.0993 21.425 96.056 22.683C95.6955 23.1049 95.3311 23.3696 94.9629 23.477C94.5947 23.5844 94.2227 23.6381 93.8468 23.6381C93.4709 23.6381 93.1449 23.5959 92.8687 23.5115C92.5926 23.4271 92.3624 23.2967 92.1783 23.1203C91.8715 22.8211 91.5953 22.2611 91.3499 21.4403C90.8436 19.7527 90.3181 18.1034 89.7735 16.4925L88.105 11.6828C88.0437 11.4987 88.013 11.3414 88.013 11.211C88.013 10.7508 88.3121 10.5206 88.9105 10.5206H89.9576C90.2261 10.5206 90.4409 10.582 90.6019 10.7048C90.7707 10.8198 90.9126 11.0461 91.0277 11.3836C92.0249 14.3446 92.8726 17.3402 93.5706 20.3702C93.655 20.7614 93.8238 20.9571 94.0769 20.9571C94.2764 20.9571 94.4605 20.796 94.6292 20.4738C95.4577 18.9319 96.1251 16.6268 96.6314 13.5584C96.7694 12.7529 96.8692 12.1354 96.9305 11.7058C96.9996 11.2762 97.0648 11.0116 97.1261 10.9119C97.1952 10.8121 97.2719 10.7354 97.3563 10.6817C97.5097 10.5743 97.6785 10.5206 97.8626 10.5206H99.1858C99.6768 10.5206 99.9222 10.7815 99.9222 11.3031ZM113.511 22.8902C113.511 23.2967 113.312 23.5 112.913 23.5H111.797C111.498 23.5 111.318 23.4425 111.256 23.3274C111.195 23.2047 111.16 23.0973 111.153 23.0052C111.145 22.9055 111.13 22.7866 111.107 22.6485C111.061 22.2726 110.995 21.8661 110.911 21.4288C110.313 22.5258 109.373 23.2507 108.092 23.6036C107.639 23.7263 107.141 23.7877 106.596 23.7877C106.051 23.7877 105.507 23.6956 104.962 23.5115C104.417 23.3351 103.934 23.0704 103.512 22.7176C102.561 21.9198 102.085 20.8727 102.085 19.5763C102.085 18.1571 102.607 17.0717 103.65 16.3199C104.509 15.7139 105.614 15.4109 106.964 15.4109C108.314 15.4109 109.457 15.806 110.393 16.5961C110.416 16.3353 110.428 16.0093 110.428 15.618C110.428 15.2268 110.351 14.8356 110.198 14.4444C110.044 14.0531 109.826 13.7271 109.542 13.4663C108.959 12.9524 108.146 12.6954 107.102 12.6954C106.166 12.6954 105.215 12.9524 104.249 13.4663C104.065 13.566 103.903 13.6159 103.765 13.6159C103.558 13.6159 103.359 13.4126 103.167 13.0061C102.96 12.5918 102.856 12.2927 102.856 12.1085C102.856 11.771 103.11 11.445 103.616 11.1305C104.582 10.5322 105.875 10.233 107.494 10.233C108.966 10.233 110.186 10.6357 111.153 11.4412C112.296 12.4077 112.867 13.7732 112.867 15.5375C112.867 16.3199 112.74 17.3057 112.487 18.4947C113.139 20.351 113.481 21.8162 113.511 22.8902ZM105.802 18.0114C105.488 18.2415 105.261 18.4717 105.123 18.7018C104.993 18.9319 104.928 19.2042 104.928 19.5187C104.928 19.8256 104.981 20.1017 105.089 20.3472C105.204 20.585 105.361 20.7845 105.56 20.9456C105.982 21.2754 106.454 21.4403 106.976 21.4403C107.505 21.4403 107.938 21.379 108.276 21.2562C108.613 21.1335 108.905 20.9762 109.15 20.7845C109.68 20.3702 109.944 19.933 109.944 19.4727C109.898 18.8974 109.58 18.4448 108.989 18.1149C108.46 17.8081 107.835 17.6547 107.114 17.6547C106.554 17.6547 106.117 17.7736 105.802 18.0114ZM117.746 23.5C117.286 23.5 117.055 23.2047 117.055 22.614V3.84687C117.055 3.63975 117.113 3.46331 117.228 3.31757C117.343 3.17182 117.489 3.09894 117.665 3.09894H119.23C119.407 3.09894 119.552 3.17182 119.667 3.31757C119.79 3.46331 119.852 3.63975 119.852 3.84687V12.2581C120.833 10.908 122.237 10.233 124.063 10.233C125.735 10.233 127.016 10.8505 127.906 12.0855C128.712 13.2055 129.114 14.6975 129.114 16.5616C129.114 18.7401 128.589 20.493 127.538 21.82C126.502 23.1241 125.191 23.7762 123.603 23.7762C122.743 23.7762 121.946 23.5844 121.209 23.2008C120.481 22.8096 119.89 22.2151 119.437 21.4173C119.422 21.6551 119.399 21.8891 119.368 22.1192C119.345 22.3493 119.33 22.5718 119.322 22.7866C119.292 23.2622 118.981 23.5 118.39 23.5H117.746ZM120.657 13.9151C120.342 14.3063 120.101 14.7666 119.932 15.2959C119.763 15.8175 119.679 16.366 119.679 16.9413C119.679 17.5089 119.763 18.0613 119.932 18.5982C120.101 19.1275 120.335 19.6031 120.634 20.025C121.294 20.9456 122.111 21.4058 123.085 21.4058C124.174 21.4058 124.991 20.9302 125.536 19.979C125.981 19.1889 126.203 18.1686 126.203 16.9183C126.203 14.8548 125.674 13.5277 124.615 12.937C124.247 12.7299 123.798 12.6263 123.269 12.6263C122.74 12.6263 122.253 12.7414 121.808 12.9715C121.363 13.2017 120.979 13.5162 120.657 13.9151ZM131.818 16.9643C131.818 15.9671 131.983 15.0542 132.313 14.2257C132.651 13.3896 133.111 12.6762 133.694 12.0855C134.914 10.8505 136.452 10.233 138.308 10.233C140.387 10.233 141.998 10.8505 143.141 12.0855C144.245 13.2745 144.798 14.9085 144.798 16.9873C144.798 18.9971 144.172 20.6387 142.922 21.9121C141.702 23.1625 140.164 23.7877 138.308 23.7877C136.352 23.7877 134.779 23.1471 133.59 21.8661C132.409 20.6157 131.818 18.9818 131.818 16.9643ZM135.512 14.0416C135.228 14.4635 135.021 14.9468 134.891 15.4915C134.76 16.0284 134.695 16.5769 134.695 17.1369C134.695 17.6892 134.768 18.2223 134.914 18.7363C135.067 19.2426 135.293 19.6952 135.592 20.0941C136.252 20.9686 137.173 21.4058 138.354 21.4058C139.558 21.4058 140.471 20.9762 141.093 20.1171C141.645 19.3653 141.921 18.3412 141.921 17.0448C141.921 15.1041 141.284 13.7655 140.011 13.0291C139.543 12.7606 138.975 12.6263 138.308 12.6263C137.648 12.6263 137.088 12.7567 136.628 13.0176C136.175 13.2707 135.803 13.6121 135.512 14.0416ZM155.303 12.2696C155.303 12.6992 155.061 12.914 154.578 12.914H151.333V20.1401C151.333 20.9225 151.721 21.3138 152.496 21.3138C152.986 21.3138 153.627 21.0683 154.417 20.5773C154.571 20.4776 154.735 20.4278 154.912 20.4278C155.096 20.4278 155.242 20.5543 155.349 20.8075L155.614 21.4058C155.714 21.6359 155.763 21.8316 155.763 21.9926C155.763 22.1537 155.641 22.3417 155.395 22.5565C155.157 22.7636 154.851 22.9515 154.475 23.1203C153.623 23.5038 152.852 23.6956 152.162 23.6956C151.471 23.6956 150.923 23.6266 150.516 23.4885C150.117 23.3427 149.776 23.128 149.492 22.8441C148.879 22.2458 148.572 21.3828 148.572 20.2552V12.914H147.605C147.122 12.914 146.88 12.6954 146.88 12.2581V11.6023C146.88 11.4258 146.926 11.2877 147.018 11.188C147.11 11.0883 147.291 11.0116 147.559 10.9579L148.71 10.6242L149.147 7.92017C149.231 7.41389 149.439 7.16074 149.768 7.16074H150.724C150.9 7.16074 151.046 7.23362 151.161 7.37937C151.276 7.51744 151.333 7.69771 151.333 7.92017V10.5206H154.578C155.061 10.5206 155.303 10.7316 155.303 11.1535V12.2696Z" fill="white"/>
</svg>
