<svg width="48" height="48" viewBox="0 0 48 48" fill="none" xmlns="http://www.w3.org/2000/svg">
<g id="react-icons/SiDialogflow" clip-path="url(#clip0_46_238)">
<path id="Vector" d="M42.6638 11L23.8898 21.844L5.2898 11.098C5.13188 11.4889 5.05041 11.9064 5.0498 12.328V30.414C5.05031 30.9893 5.20186 31.5545 5.48932 32.0529C5.77677 32.5513 6.19004 32.9655 6.6878 33.254L14.5238 37.786V47.02C14.5247 47.1927 14.571 47.3622 14.658 47.5114C14.745 47.6606 14.8697 47.7843 15.0196 47.8702C15.1695 47.9561 15.3393 48.0011 15.512 48.0007C15.6847 48.0003 15.8543 47.9545 16.0038 47.868L41.3118 33.262C41.8101 32.9741 42.2238 32.56 42.5114 32.0615C42.7989 31.563 42.9501 30.9975 42.9498 30.422V12.324C42.9469 11.8677 42.8496 11.4168 42.6638 11Z" fill="#EF6C00"/>
<path id="Vector_2" d="M22.3517 0.440002C22.8502 0.151837 23.4159 7.90502e-05 23.9917 1.93119e-06C24.5689 -0.000624497 25.136 0.151158 25.6357 0.440002L41.2957 9.48C41.696 9.71066 42.0435 10.0227 42.3157 10.396L23.8897 21.036L5.61768 10.476C5.8953 10.0681 6.26095 9.72773 6.68768 9.48L22.3517 0.440002Z" fill="#FF9900"/>
</g>
<defs>
<clipPath id="clip0_46_238">
<rect width="48" height="48" fill="white"/>
</clipPath>
</defs>
</svg>
