<svg width="49" height="48" viewBox="0 0 49 48" fill="none" xmlns="http://www.w3.org/2000/svg">
<g clip-path="url(#clip0_46_241)">
<path d="M43.6144 11.3679C42.4942 11.3688 41.406 11.7414 40.5203 12.4273C39.6346 13.1132 39.0016 14.0736 38.7204 15.1579H32.9264C31.7306 15.1577 30.5735 15.5816 29.6609 16.3543C28.7483 17.1271 28.1394 18.1984 27.9424 19.3779L27.7364 20.6259C27.6391 21.2162 27.335 21.7526 26.8784 22.1391C26.4218 22.5257 25.8427 22.7372 25.2444 22.7359H23.2424C22.962 21.6515 22.3292 20.691 21.4435 20.0052C20.5579 19.3195 19.4695 18.9474 18.3494 18.9474C17.2293 18.9474 16.141 19.3195 15.2553 20.0052C14.3697 20.691 13.7369 21.6515 13.4564 22.7359H10.6124C10.3048 21.5449 9.57336 20.507 8.55524 19.8168C7.53713 19.1265 6.30221 18.8312 5.08196 18.9862C3.8617 19.1413 2.73988 19.736 1.92676 20.659C1.11364 21.582 0.665039 22.7699 0.665039 23.9999C0.665039 25.23 1.11364 26.4178 1.92676 27.3408C2.73988 28.2638 3.8617 28.8585 5.08196 29.0136C6.30221 29.1687 7.53713 28.8734 8.55524 28.1831C9.57336 27.4928 10.3048 26.4549 10.6124 25.2639H13.4564C13.7362 26.3492 14.3688 27.3107 15.2547 27.9972C16.1407 28.6838 17.2296 29.0563 18.3504 29.0563C19.4712 29.0563 20.5602 28.6838 21.4461 27.9972C22.332 27.3107 22.9646 26.3492 23.2444 25.2639H25.2444C25.843 25.2621 26.4227 25.4734 26.8796 25.8601C27.3366 26.2467 27.641 26.7833 27.7384 27.3739L27.9444 28.6199C28.1409 29.7998 28.7497 30.8716 29.6623 31.6447C30.575 32.4178 31.7323 32.8421 32.9284 32.8419H33.6684C33.9758 34.033 34.7071 35.0712 35.7252 35.7616C36.7433 36.4521 37.9783 36.7476 39.1986 36.5927C40.419 36.4377 41.5409 35.843 42.3542 34.92C43.1674 33.997 43.6161 32.8091 43.6161 31.5789C43.6161 30.3488 43.1674 29.1608 42.3542 28.2378C41.5409 27.3148 40.419 26.7201 39.1986 26.5652C37.9783 26.4102 36.7433 26.7057 35.7252 27.3962C34.7071 28.0867 33.9758 29.1248 33.6684 30.3159H32.9284C32.3299 30.3172 31.7505 30.1053 31.2939 29.7184C30.8373 29.3314 30.5333 28.7945 30.4364 28.2039L30.2304 26.9579C30.0397 25.8119 29.459 24.767 28.5864 23.9999C29.4579 23.2317 30.0372 22.1861 30.2264 21.0399L30.4344 19.7959C30.5313 19.2053 30.8353 18.6684 31.2919 18.2815C31.7485 17.8945 32.3279 17.6827 32.9264 17.6839H38.7184C38.9545 18.5993 39.4425 19.4301 40.1271 20.082C40.8117 20.7339 41.6655 21.1807 42.5913 21.3717C43.5171 21.5627 44.478 21.4902 45.3647 21.1624C46.2514 20.8346 47.0283 20.2648 47.6074 19.5175C48.1864 18.7702 48.5442 17.8756 48.6402 16.9351C48.7362 15.9947 48.5665 15.0462 48.1504 14.1973C47.7343 13.3485 47.0885 12.6334 46.2863 12.1332C45.4841 11.6331 44.5578 11.3679 43.6124 11.3679M43.6124 13.8939C44.2824 13.8939 44.9249 14.1601 45.3986 14.6338C45.8723 15.1075 46.1384 15.75 46.1384 16.4199C46.1387 16.7518 46.0735 17.0805 45.9467 17.3872C45.8199 17.6939 45.6339 17.9726 45.3993 18.2074C45.1647 18.4421 44.8861 18.6284 44.5795 18.7554C44.2729 18.8825 43.9443 18.9479 43.6124 18.9479C43.2805 18.9479 42.9519 18.8825 42.6453 18.7554C42.3387 18.6284 42.0602 18.4421 41.8256 18.2074C41.591 17.9726 41.405 17.6939 41.2781 17.3872C41.1513 17.0805 41.0862 16.7518 41.0864 16.4199C41.0864 16.088 41.1518 15.7594 41.2789 15.4528C41.406 15.1462 41.5922 14.8676 41.827 14.6331C42.0618 14.3985 42.3405 14.2125 42.6472 14.0856C42.9538 13.9588 43.2825 13.8937 43.6144 13.8939M5.71842 21.4739C6.05031 21.4737 6.379 21.5388 6.6857 21.6656C6.9924 21.7925 7.2711 21.9785 7.50587 22.2131C7.74064 22.4476 7.92688 22.7262 8.05395 23.0328C8.18102 23.3394 8.24642 23.668 8.24642 23.9999C8.24642 24.3318 8.18102 24.6604 8.05395 24.967C7.92688 25.2736 7.74064 25.5522 7.50587 25.7868C7.2711 26.0214 6.9924 26.2074 6.6857 26.3342C6.379 26.461 6.05031 26.5262 5.71842 26.5259C5.04849 26.5259 4.40599 26.2598 3.93227 25.7861C3.45856 25.3124 3.19242 24.6699 3.19242 23.9999C3.19242 23.33 3.45856 22.6875 3.93227 22.2138C4.40599 21.7401 5.04849 21.4739 5.71842 21.4739ZM18.3504 21.4739C18.6821 21.4739 19.0106 21.5393 19.3171 21.6662C19.6236 21.7931 19.902 21.9792 20.1366 22.2138C20.3711 22.4483 20.5572 22.7268 20.6841 23.0333C20.8111 23.3397 20.8764 23.6682 20.8764 23.9999C20.8764 24.6699 20.6103 25.3124 20.1366 25.7861C19.6629 26.2598 19.0204 26.5259 18.3504 26.5259C17.6808 26.5254 17.0389 26.259 16.5656 25.7854C16.0923 25.3117 15.8264 24.6695 15.8264 23.9999C15.8264 23.33 16.0926 22.6875 16.5663 22.2138C17.04 21.7401 17.6825 21.4739 18.3524 21.4739M38.5644 29.0539C39.2344 29.0539 39.8769 29.3201 40.3506 29.7938C40.8243 30.2675 41.0904 30.91 41.0904 31.5799C41.0904 32.2499 40.8243 32.8924 40.3506 33.3661C39.8769 33.8398 39.2344 34.1059 38.5644 34.1059C38.2325 34.1062 37.9039 34.041 37.5972 33.9142C37.2905 33.7874 37.0117 33.6014 36.777 33.3668C36.5422 33.1322 36.356 32.8536 36.2289 32.547C36.1018 32.2404 36.0364 31.9118 36.0364 31.5799C36.0362 31.248 36.1013 30.9193 36.2281 30.6126C36.355 30.3059 36.541 30.0272 36.7756 29.7925C37.0102 29.5577 37.2887 29.3715 37.5953 29.2444C37.9019 29.1173 38.2305 29.0519 38.5624 29.0519" fill="#EB4B71"/>
</g>
<defs>
<clipPath id="clip0_46_241">
<rect width="48" height="48" fill="white" transform="translate(0.666504)"/>
</clipPath>
</defs>
</svg>
