<svg width="32" height="32" viewBox="0 0 32 32" fill="none" xmlns="http://www.w3.org/2000/svg">
<g id="solar:cup-star-bold">
<path id="Vector" d="M29.3332 10.8826V10.98C29.3332 12.1266 29.3332 12.7013 29.0572 13.1706C28.7812 13.64 28.2785 13.9186 27.2758 14.4773L26.2185 15.064C26.9465 12.6 27.1905 9.95197 27.2798 7.68797L27.2932 7.39331L27.2958 7.32397C28.1638 7.62531 28.6518 7.85064 28.9558 8.27197C29.3332 8.79597 29.3332 9.49197 29.3332 10.8826ZM2.6665 10.8826V10.98C2.6665 12.1266 2.6665 12.7013 2.9425 13.1706C3.2185 13.64 3.72117 13.9186 4.72384 14.4773L5.7825 15.064C5.05317 12.6 4.80917 9.95197 4.71984 7.68797L4.7065 7.39331L4.70517 7.32397C3.83584 7.62531 3.34784 7.85064 3.04384 8.27197C2.6665 8.79597 2.6665 9.49331 2.6665 10.8826Z" fill="#FFC703"/>
<path id="Vector_2" fill-rule="evenodd" clip-rule="evenodd" d="M16.0001 2.66657C18.3788 2.66657 20.3375 2.87591 21.8361 3.12924C23.3548 3.38524 24.1135 3.51324 24.7481 4.29457C25.3828 5.07591 25.3481 5.91991 25.2815 7.60791C25.0521 13.4066 23.8015 20.6479 17.0001 21.2879V25.9999H18.9068C19.2149 26.0001 19.5135 26.107 19.7517 26.3024C19.9899 26.4979 20.1531 26.7698 20.2135 27.0719L20.4668 28.3332H24.0001C24.2653 28.3332 24.5197 28.4386 24.7072 28.6261C24.8948 28.8137 25.0001 29.068 25.0001 29.3332C25.0001 29.5985 24.8948 29.8528 24.7072 30.0403C24.5197 30.2279 24.2653 30.3332 24.0001 30.3332H8.00013C7.73491 30.3332 7.48056 30.2279 7.29302 30.0403C7.10548 29.8528 7.00013 29.5985 7.00013 29.3332C7.00013 29.068 7.10548 28.8137 7.29302 28.6261C7.48056 28.4386 7.73491 28.3332 8.00013 28.3332H11.5335L11.7868 27.0719C11.8472 26.7698 12.0104 26.4979 12.2486 26.3024C12.4868 26.107 12.7853 26.0001 13.0935 25.9999H15.0001V21.2879C8.20013 20.6479 6.94946 13.4052 6.72013 7.60791C6.65213 5.91991 6.61879 5.07457 7.25346 4.29457C7.88679 3.51324 8.64546 3.38524 10.1641 3.12924C12.0932 2.81308 14.0453 2.65832 16.0001 2.66657ZM17.2695 8.26524L17.1388 8.03057C16.6321 7.11991 16.3788 6.66657 16.0001 6.66657C15.6215 6.66657 15.3681 7.11991 14.8615 8.03057L14.7308 8.26524C14.5868 8.52391 14.5148 8.65191 14.4028 8.73724C14.2895 8.82257 14.1495 8.85457 13.8695 8.91724L13.6161 8.97591C12.6321 9.19857 12.1401 9.30924 12.0228 9.68524C11.9055 10.0626 12.2415 10.4546 12.9121 11.2386L13.0855 11.4412C13.2761 11.6639 13.3721 11.7746 13.4148 11.9132C13.4575 12.0519 13.4428 12.1999 13.4148 12.4972L13.3881 12.7679C13.2868 13.8146 13.2361 14.3386 13.5415 14.5706C13.8481 14.8026 14.3095 14.5906 15.2308 14.1666L15.4681 14.0572C15.7308 13.9372 15.8615 13.8772 16.0001 13.8772C16.1388 13.8772 16.2695 13.9372 16.5321 14.0572L16.7695 14.1666C17.6908 14.5919 18.1521 14.8026 18.4588 14.5706C18.7655 14.3386 18.7135 13.8146 18.6121 12.7679L18.5855 12.4972C18.5575 12.1999 18.5428 12.0519 18.5855 11.9132C18.6281 11.7759 18.7241 11.6639 18.9148 11.4412L19.0881 11.2386C19.7588 10.4546 20.0948 10.0626 19.9775 9.68524C19.8601 9.30924 19.3681 9.19857 18.3841 8.97591L18.1308 8.91724C17.8508 8.85457 17.7108 8.82391 17.5975 8.73724C17.4855 8.65191 17.4135 8.52391 17.2695 8.26524Z" fill="#FFC703"/>
</g>
</svg>
