<svg width="28" height="28" viewBox="0 0 28 28" fill="none" xmlns="http://www.w3.org/2000/svg">
<circle cx="14" cy="14" r="13.5" fill="#C8FFBA" stroke="#3FBF1F"/>
<g clip-path="url(#clip0_70_435)">
<rect width="14.9333" height="14.9333" transform="translate(6.5332 6.53345)" fill="#C8FFBA"/>
<path fill-rule="evenodd" clip-rule="evenodd" d="M16.1962 16.8515C16.1936 16.8477 16.2 16.8568 16.1962 16.8515C16.1864 16.838 16.1762 16.8248 16.1659 16.8117C16.1325 16.7696 16.0973 16.7291 16.0604 16.69C15.9696 16.5937 15.8361 16.4702 15.6558 16.3481C15.2918 16.1014 14.7456 15.8667 14.0001 15.8667C13.2546 15.8667 12.7084 16.1014 12.3444 16.3481C12.1641 16.4702 12.0306 16.5937 11.9398 16.69C11.9029 16.7291 11.8677 16.7696 11.8343 16.8117C11.8218 16.8275 11.842 16.8011 11.8343 16.8117L11.788 16.8741C11.7266 16.9651 11.6991 17.0747 11.7105 17.1839C11.7219 17.2931 11.7714 17.3947 11.8503 17.471L13.6757 19.2356C13.8566 19.4104 14.1435 19.4104 14.3244 19.2356L16.1499 17.471C16.2288 17.3947 16.2783 17.2931 16.2897 17.1839C16.3011 17.0748 16.2736 16.9651 16.2122 16.8741L16.1962 16.8515Z" fill="#1A8200"/>
<path fill-rule="evenodd" clip-rule="evenodd" d="M18.815 14.4043C18.8111 14.398 18.7976 14.3761 18.7913 14.3664C18.7743 14.3404 18.7567 14.3147 18.7385 14.2894C18.6933 14.2263 18.6273 14.1408 18.5384 14.0405C18.3605 13.8398 18.0904 13.5796 17.7096 13.3219C16.9434 12.8033 15.749 12.3083 14 12.3083C12.251 12.3083 11.0566 12.8033 10.2904 13.3219C9.90964 13.5796 9.63947 13.8398 9.46158 14.0405C9.37265 14.1408 9.30671 14.2263 9.26147 14.2894C9.2433 14.3147 9.22569 14.3404 9.20868 14.3664C9.20238 14.3762 9.19725 14.3842 9.19331 14.3906L9.18499 14.4043C9.13157 14.4948 9.11021 14.6006 9.12439 14.7047C9.13856 14.8087 9.18744 14.905 9.2631 14.9779L10.293 15.9695C10.3381 16.013 10.3916 16.0469 10.4501 16.0693C10.5086 16.0917 10.5711 16.102 10.6337 16.0997C10.6963 16.0974 10.7578 16.0826 10.8146 16.056C10.8713 16.0294 10.9222 15.9917 10.964 15.945L10.9697 15.9389C10.9757 15.9325 10.9862 15.9217 11.001 15.907C11.0465 15.8622 11.0935 15.819 11.1419 15.7776C11.2703 15.6672 11.4655 15.5166 11.724 15.3651C12.24 15.0627 13.0052 14.7583 14 14.7583C14.9948 14.7583 15.76 15.0627 16.2761 15.3651C16.5345 15.5166 16.7297 15.6672 16.8581 15.7776C16.9065 15.819 16.9535 15.8622 16.999 15.907C17.0116 15.9194 17.0239 15.9321 17.036 15.945L17.0358 15.9448L17.0355 15.9444M17.0355 15.9444L17.0362 15.9453C17.0781 15.9919 17.1289 16.0295 17.1856 16.0561C17.2424 16.0826 17.3039 16.0975 17.3665 16.0997C17.4291 16.102 17.4915 16.0916 17.55 16.0693C17.6085 16.0469 17.6619 16.013 17.707 15.9695L18.7369 14.9779C18.8126 14.905 18.8614 14.8087 18.8756 14.7047C18.8898 14.6006 18.8684 14.4948 18.815 14.4043" fill="#1A8200"/>
<path d="M21.3491 11.8204C21.3591 11.8338 21.3836 11.8679 21.3836 11.8679C21.4465 11.9589 21.4752 12.0692 21.4643 12.1793C21.4535 12.2894 21.4039 12.392 21.3244 12.4689L20.2543 13.5043C20.2083 13.5488 20.1538 13.5833 20.0939 13.6058C20.0341 13.6283 19.9703 13.6382 19.9064 13.635C19.8426 13.6318 19.7801 13.6156 19.7228 13.5872C19.6655 13.5589 19.6146 13.519 19.5734 13.4702L19.5733 13.4701L19.5708 13.4672C19.5681 13.4641 19.5634 13.4588 19.5568 13.4513C19.5357 13.4278 19.5144 13.4047 19.4927 13.3819C19.4341 13.3202 19.3441 13.2294 19.2235 13.1191C18.9821 12.8983 18.62 12.601 18.1444 12.303C17.1936 11.7072 15.796 11.1127 13.9999 11.1127C12.2038 11.1127 10.8062 11.7072 9.85537 12.303C9.37974 12.601 9.01764 12.8983 8.77629 13.1191C8.65574 13.2294 8.5657 13.3202 8.50711 13.3819C8.4854 13.4047 8.46404 13.4278 8.44303 13.4513C8.43632 13.4588 8.43163 13.4641 8.42897 13.4672L8.4276 13.4688L8.42672 13.4698L8.42661 13.47L8.42649 13.4701L8.42637 13.4703C8.38511 13.5191 8.33425 13.5589 8.27697 13.5872C8.21968 13.6156 8.15718 13.6319 8.09334 13.635C8.0295 13.6382 7.96569 13.6283 7.90585 13.6058C7.84602 13.5833 7.79144 13.5488 7.74551 13.5043L6.67538 12.4689C6.59589 12.392 6.5463 12.2894 6.53545 12.1793C6.52461 12.0692 6.55322 11.9589 6.61617 11.8679L6.61649 11.8675L6.61687 11.867L6.61775 11.8657L6.62005 11.8624L6.62705 11.8526C6.63279 11.8446 6.64065 11.8338 6.65065 11.8204C6.67066 11.7936 6.69927 11.7563 6.73666 11.71C6.81142 11.6174 6.92143 11.4888 7.0682 11.3361C7.36153 11.031 7.80276 10.6291 8.40354 10.2286C9.60847 9.4253 11.4472 8.63354 13.9999 8.63354C16.5526 8.63354 18.3913 9.4253 19.5962 10.2286C20.197 10.6291 20.6383 11.031 20.9316 11.3361C21.0783 11.4888 21.1884 11.6174 21.2631 11.71C21.2925 11.7462 21.3212 11.7831 21.3491 11.8204Z" fill="#1A8200"/>
</g>
<defs>
<clipPath id="clip0_70_435">
<rect width="14.9333" height="14.9333" fill="white" transform="translate(6.5332 6.53345)"/>
</clipPath>
</defs>
</svg>
